<svg xmlns="http://www.w3.org/2000/svg" xmlns:xlink="http://www.w3.org/1999/xlink" width="500" zoomAndPan="magnify" viewBox="0 0 375 374.999991" height="500" preserveAspectRatio="xMidYMid meet" version="1.0"><defs><g/><clipPath id="60610fcca7"><path d="M 17.832031 17.832031 L 356.832031 17.832031 L 356.832031 356.832031 L 17.832031 356.832031 Z M 17.832031 17.832031 " clip-rule="nonzero"/></clipPath></defs><g clip-path="url(#60610fcca7)"><path fill="#6e56cf" d="M 35.066406 17.832031 L 339.597656 17.832031 C 349.117188 17.832031 356.832031 25.546875 356.832031 35.066406 L 356.832031 339.597656 C 356.832031 349.117188 349.117188 356.832031 339.597656 356.832031 L 35.066406 356.832031 C 25.546875 356.832031 17.832031 349.117188 17.832031 339.597656 L 17.832031 35.066406 C 17.832031 25.546875 25.546875 17.832031 35.066406 17.832031 " fill-opacity="1" fill-rule="nonzero"/></g><g fill="#f1eefe" fill-opacity="1"><g transform="translate(39.402343, 268.124982)"><g><path d="M 125.984375 -22.609375 C 120.117188 -13.859375 112.925781 -7.425781 104.40625 -3.3125 C 95.882812 0.800781 85.40625 2.859375 72.96875 2.859375 C 30.644531 2.859375 9.484375 -20.867188 9.484375 -68.328125 C 9.484375 -92.609375 14.847656 -110.539062 25.578125 -122.125 C 36.304688 -133.71875 51.769531 -139.515625 71.96875 -139.515625 C 85.332031 -139.515625 96.226562 -137.257812 104.65625 -132.75 C 113.082031 -128.238281 119.5 -122.328125 123.90625 -115.015625 L 102.28125 -98.234375 C 99.125 -102.972656 96.226562 -106.394531 93.59375 -108.5 C 90.96875 -110.613281 87.972656 -112.195312 84.609375 -113.25 C 81.253906 -114.300781 77.238281 -114.828125 72.5625 -114.828125 C 61.375 -114.828125 52.847656 -111.253906 46.984375 -104.109375 C 41.128906 -96.972656 38.203125 -85.046875 38.203125 -68.328125 C 38.203125 -52.722656 40.953125 -41.066406 46.453125 -33.359375 C 51.953125 -25.660156 60.722656 -21.8125 72.765625 -21.8125 C 80.859375 -21.8125 87.160156 -23.359375 91.671875 -26.453125 C 96.179688 -29.546875 100.28125 -33.660156 103.96875 -38.796875 Z M 125.984375 -22.609375 "/></g></g><g transform="translate(171.014927, 268.124982)"><g><path d="M 122.921875 0 L 122.921875 -91.828125 L 90.140625 -34.75 L 74.046875 -34.75 L 41.671875 -91.828125 L 41.671875 0 L 14.8125 0 L 14.8125 -136.640625 L 46.890625 -136.640625 L 82.546875 -71.78125 L 118.484375 -136.640625 L 149.875 -136.640625 L 149.875 0 Z M 122.921875 0 "/></g></g></g></svg>